<mxfile host="app.diagrams.net" modified="2023-12-11T15:08:16.522Z" agent="Mozilla/5.0 (Windows NT 10.0; Win64; x64) AppleWebKit/537.36 (KHTML, like Gecko) Chrome/105.0.0.0 Safari/537.36" etag="nHKkQr6AXjvYvFgGV2jR" version="22.1.7" type="github">
  <diagram id="C5RBs43oDa-KdzZeNtuy" name="Page-1">
    <mxGraphModel dx="1488" dy="963" grid="1" gridSize="10" guides="1" tooltips="1" connect="1" arrows="1" fold="1" page="1" pageScale="1" pageWidth="827" pageHeight="1169" math="0" shadow="0">
      <root>
        <mxCell id="WIyWlLk6GJQsqaUBKTNV-0" />
        <mxCell id="WIyWlLk6GJQsqaUBKTNV-1" parent="WIyWlLk6GJQsqaUBKTNV-0" />
        <mxCell id="toGbfIYDcaePzaTsBYl1-20" value="Start" style="ellipse;whiteSpace=wrap;html=1;" vertex="1" parent="WIyWlLk6GJQsqaUBKTNV-1">
          <mxGeometry x="280" y="40" width="120" height="80" as="geometry" />
        </mxCell>
        <mxCell id="toGbfIYDcaePzaTsBYl1-21" value="" style="endArrow=classic;html=1;rounded=0;exitX=0.925;exitY=0.786;exitDx=0;exitDy=0;exitPerimeter=0;" edge="1" parent="WIyWlLk6GJQsqaUBKTNV-1" source="toGbfIYDcaePzaTsBYl1-20">
          <mxGeometry width="50" height="50" relative="1" as="geometry">
            <mxPoint x="389" y="105" as="sourcePoint" />
            <mxPoint x="470" y="170" as="targetPoint" />
          </mxGeometry>
        </mxCell>
        <mxCell id="toGbfIYDcaePzaTsBYl1-22" value="" style="endArrow=classic;html=1;rounded=0;exitX=0.108;exitY=0.845;exitDx=0;exitDy=0;exitPerimeter=0;" edge="1" parent="WIyWlLk6GJQsqaUBKTNV-1" source="toGbfIYDcaePzaTsBYl1-20">
          <mxGeometry width="50" height="50" relative="1" as="geometry">
            <mxPoint x="300" y="110" as="sourcePoint" />
            <mxPoint x="230" y="170" as="targetPoint" />
            <Array as="points" />
          </mxGeometry>
        </mxCell>
        <mxCell id="toGbfIYDcaePzaTsBYl1-24" value="Gather Wood from Trees" style="rounded=0;whiteSpace=wrap;html=1;" vertex="1" parent="WIyWlLk6GJQsqaUBKTNV-1">
          <mxGeometry x="170" y="170" width="120" height="60" as="geometry" />
        </mxCell>
        <mxCell id="toGbfIYDcaePzaTsBYl1-26" value="Mine Stone" style="rounded=0;whiteSpace=wrap;html=1;" vertex="1" parent="WIyWlLk6GJQsqaUBKTNV-1">
          <mxGeometry x="414" y="170" width="120" height="60" as="geometry" />
        </mxCell>
        <mxCell id="toGbfIYDcaePzaTsBYl1-27" value="" style="endArrow=classic;html=1;rounded=0;" edge="1" parent="WIyWlLk6GJQsqaUBKTNV-1">
          <mxGeometry width="50" height="50" relative="1" as="geometry">
            <mxPoint x="534" y="230" as="sourcePoint" />
            <mxPoint x="594" y="300" as="targetPoint" />
          </mxGeometry>
        </mxCell>
        <mxCell id="toGbfIYDcaePzaTsBYl1-28" value="" style="endArrow=classic;html=1;rounded=0;" edge="1" parent="WIyWlLk6GJQsqaUBKTNV-1" target="toGbfIYDcaePzaTsBYl1-29">
          <mxGeometry width="50" height="50" relative="1" as="geometry">
            <mxPoint x="460" y="230" as="sourcePoint" />
            <mxPoint x="460" y="330" as="targetPoint" />
          </mxGeometry>
        </mxCell>
        <mxCell id="toGbfIYDcaePzaTsBYl1-29" value="Build Fortress" style="rounded=0;whiteSpace=wrap;html=1;" vertex="1" parent="WIyWlLk6GJQsqaUBKTNV-1">
          <mxGeometry x="400" y="300" width="120" height="60" as="geometry" />
        </mxCell>
        <mxCell id="toGbfIYDcaePzaTsBYl1-30" value="Explore Cave" style="rounded=0;whiteSpace=wrap;html=1;" vertex="1" parent="WIyWlLk6GJQsqaUBKTNV-1">
          <mxGeometry x="550" y="300" width="120" height="60" as="geometry" />
        </mxCell>
        <mxCell id="toGbfIYDcaePzaTsBYl1-31" value="" style="endArrow=classic;html=1;rounded=0;" edge="1" parent="WIyWlLk6GJQsqaUBKTNV-1" target="toGbfIYDcaePzaTsBYl1-32">
          <mxGeometry width="50" height="50" relative="1" as="geometry">
            <mxPoint x="240" y="230" as="sourcePoint" />
            <mxPoint x="240" y="310" as="targetPoint" />
          </mxGeometry>
        </mxCell>
        <mxCell id="toGbfIYDcaePzaTsBYl1-32" value="Build Shelter" style="rounded=0;whiteSpace=wrap;html=1;" vertex="1" parent="WIyWlLk6GJQsqaUBKTNV-1">
          <mxGeometry x="180" y="310" width="120" height="60" as="geometry" />
        </mxCell>
        <mxCell id="toGbfIYDcaePzaTsBYl1-33" value="" style="endArrow=classic;html=1;rounded=0;" edge="1" parent="WIyWlLk6GJQsqaUBKTNV-1" target="toGbfIYDcaePzaTsBYl1-34">
          <mxGeometry width="50" height="50" relative="1" as="geometry">
            <mxPoint x="170" y="230" as="sourcePoint" />
            <mxPoint x="80" y="310" as="targetPoint" />
          </mxGeometry>
        </mxCell>
        <mxCell id="toGbfIYDcaePzaTsBYl1-34" value="Explore cave and die" style="rounded=0;whiteSpace=wrap;html=1;" vertex="1" parent="WIyWlLk6GJQsqaUBKTNV-1">
          <mxGeometry y="310" width="120" height="60" as="geometry" />
        </mxCell>
        <mxCell id="toGbfIYDcaePzaTsBYl1-35" value="" style="endArrow=classic;html=1;rounded=0;" edge="1" parent="WIyWlLk6GJQsqaUBKTNV-1" target="toGbfIYDcaePzaTsBYl1-36">
          <mxGeometry width="50" height="50" relative="1" as="geometry">
            <mxPoint x="59.760000000000005" y="370" as="sourcePoint" />
            <mxPoint x="59.760000000000005" y="440" as="targetPoint" />
          </mxGeometry>
        </mxCell>
        <mxCell id="toGbfIYDcaePzaTsBYl1-36" value="Whether to reborn" style="rhombus;whiteSpace=wrap;html=1;" vertex="1" parent="WIyWlLk6GJQsqaUBKTNV-1">
          <mxGeometry x="19.99999999999999" y="430" width="80" height="80" as="geometry" />
        </mxCell>
        <mxCell id="toGbfIYDcaePzaTsBYl1-37" value="" style="endArrow=classic;html=1;rounded=0;" edge="1" parent="WIyWlLk6GJQsqaUBKTNV-1">
          <mxGeometry width="50" height="50" relative="1" as="geometry">
            <mxPoint x="59.76" y="510" as="sourcePoint" />
            <mxPoint x="60" y="820" as="targetPoint" />
          </mxGeometry>
        </mxCell>
        <mxCell id="toGbfIYDcaePzaTsBYl1-38" value="" style="endArrow=classic;html=1;rounded=0;entryX=0;entryY=0.5;entryDx=0;entryDy=0;" edge="1" parent="WIyWlLk6GJQsqaUBKTNV-1" target="toGbfIYDcaePzaTsBYl1-20">
          <mxGeometry width="50" height="50" relative="1" as="geometry">
            <mxPoint x="20" y="469.76" as="sourcePoint" />
            <mxPoint x="210" y="130" as="targetPoint" />
            <Array as="points">
              <mxPoint x="-60" y="470" />
              <mxPoint x="-60" y="80" />
            </Array>
          </mxGeometry>
        </mxCell>
        <mxCell id="toGbfIYDcaePzaTsBYl1-39" value="Yes" style="text;html=1;align=center;verticalAlign=middle;resizable=0;points=[];autosize=1;strokeColor=none;fillColor=none;" vertex="1" parent="WIyWlLk6GJQsqaUBKTNV-1">
          <mxGeometry x="-20" y="440" width="40" height="30" as="geometry" />
        </mxCell>
        <mxCell id="toGbfIYDcaePzaTsBYl1-40" value="No" style="text;html=1;align=center;verticalAlign=middle;resizable=0;points=[];autosize=1;strokeColor=none;fillColor=none;" vertex="1" parent="WIyWlLk6GJQsqaUBKTNV-1">
          <mxGeometry x="60" y="518" width="40" height="30" as="geometry" />
        </mxCell>
        <mxCell id="toGbfIYDcaePzaTsBYl1-46" value="" style="edgeStyle=orthogonalEdgeStyle;rounded=0;orthogonalLoop=1;jettySize=auto;html=1;" edge="1" parent="WIyWlLk6GJQsqaUBKTNV-1" source="toGbfIYDcaePzaTsBYl1-42">
          <mxGeometry relative="1" as="geometry">
            <mxPoint x="60" y="990" as="targetPoint" />
          </mxGeometry>
        </mxCell>
        <mxCell id="toGbfIYDcaePzaTsBYl1-42" value="Play Again" style="rhombus;whiteSpace=wrap;html=1;" vertex="1" parent="WIyWlLk6GJQsqaUBKTNV-1">
          <mxGeometry x="20" y="820" width="80" height="80" as="geometry" />
        </mxCell>
        <mxCell id="toGbfIYDcaePzaTsBYl1-43" value="" style="endArrow=classic;html=1;rounded=0;" edge="1" parent="WIyWlLk6GJQsqaUBKTNV-1">
          <mxGeometry width="50" height="50" relative="1" as="geometry">
            <mxPoint x="15" y="859.71" as="sourcePoint" />
            <mxPoint x="280" y="80" as="targetPoint" />
            <Array as="points">
              <mxPoint x="-60" y="860" />
              <mxPoint x="-60" y="80" />
            </Array>
          </mxGeometry>
        </mxCell>
        <mxCell id="toGbfIYDcaePzaTsBYl1-44" value="Yes" style="text;html=1;align=center;verticalAlign=middle;resizable=0;points=[];autosize=1;strokeColor=none;fillColor=none;" vertex="1" parent="WIyWlLk6GJQsqaUBKTNV-1">
          <mxGeometry x="-30" y="828" width="40" height="30" as="geometry" />
        </mxCell>
        <mxCell id="toGbfIYDcaePzaTsBYl1-47" value="Stop" style="ellipse;whiteSpace=wrap;html=1;" vertex="1" parent="WIyWlLk6GJQsqaUBKTNV-1">
          <mxGeometry y="990" width="120" height="80" as="geometry" />
        </mxCell>
        <mxCell id="toGbfIYDcaePzaTsBYl1-48" value="No" style="text;html=1;strokeColor=none;fillColor=none;align=center;verticalAlign=middle;whiteSpace=wrap;rounded=0;" vertex="1" parent="WIyWlLk6GJQsqaUBKTNV-1">
          <mxGeometry x="50" y="910" width="60" height="30" as="geometry" />
        </mxCell>
        <mxCell id="toGbfIYDcaePzaTsBYl1-49" value="Seek help from villagers" style="rounded=0;whiteSpace=wrap;html=1;" vertex="1" parent="WIyWlLk6GJQsqaUBKTNV-1">
          <mxGeometry x="130" y="430" width="120" height="60" as="geometry" />
        </mxCell>
        <mxCell id="toGbfIYDcaePzaTsBYl1-50" value="Explore" style="rounded=0;whiteSpace=wrap;html=1;" vertex="1" parent="WIyWlLk6GJQsqaUBKTNV-1">
          <mxGeometry x="290" y="430" width="120" height="60" as="geometry" />
        </mxCell>
        <mxCell id="toGbfIYDcaePzaTsBYl1-51" value="Seek help from villagers" style="rounded=0;whiteSpace=wrap;html=1;" vertex="1" parent="WIyWlLk6GJQsqaUBKTNV-1">
          <mxGeometry x="430" y="430" width="120" height="60" as="geometry" />
        </mxCell>
        <mxCell id="toGbfIYDcaePzaTsBYl1-52" value="Explore" style="rounded=0;whiteSpace=wrap;html=1;" vertex="1" parent="WIyWlLk6GJQsqaUBKTNV-1">
          <mxGeometry x="580" y="430" width="120" height="60" as="geometry" />
        </mxCell>
        <mxCell id="toGbfIYDcaePzaTsBYl1-53" value="" style="endArrow=classic;html=1;rounded=0;entryX=0.656;entryY=0.029;entryDx=0;entryDy=0;entryPerimeter=0;" edge="1" parent="WIyWlLk6GJQsqaUBKTNV-1" target="toGbfIYDcaePzaTsBYl1-49">
          <mxGeometry width="50" height="50" relative="1" as="geometry">
            <mxPoint x="210" y="370" as="sourcePoint" />
            <mxPoint x="210" y="420" as="targetPoint" />
          </mxGeometry>
        </mxCell>
        <mxCell id="toGbfIYDcaePzaTsBYl1-54" value="" style="endArrow=classic;html=1;rounded=0;entryX=0.581;entryY=-0.008;entryDx=0;entryDy=0;entryPerimeter=0;" edge="1" parent="WIyWlLk6GJQsqaUBKTNV-1" target="toGbfIYDcaePzaTsBYl1-50">
          <mxGeometry width="50" height="50" relative="1" as="geometry">
            <mxPoint x="270" y="370" as="sourcePoint" />
            <mxPoint x="320" y="320" as="targetPoint" />
          </mxGeometry>
        </mxCell>
        <mxCell id="toGbfIYDcaePzaTsBYl1-55" value="" style="endArrow=classic;html=1;rounded=0;" edge="1" parent="WIyWlLk6GJQsqaUBKTNV-1" target="toGbfIYDcaePzaTsBYl1-51">
          <mxGeometry width="50" height="50" relative="1" as="geometry">
            <mxPoint x="473.58" y="360" as="sourcePoint" />
            <mxPoint x="473.58" y="460" as="targetPoint" />
          </mxGeometry>
        </mxCell>
        <mxCell id="toGbfIYDcaePzaTsBYl1-56" value="" style="endArrow=classic;html=1;rounded=0;entryX=0.5;entryY=0;entryDx=0;entryDy=0;" edge="1" parent="WIyWlLk6GJQsqaUBKTNV-1" target="toGbfIYDcaePzaTsBYl1-52">
          <mxGeometry width="50" height="50" relative="1" as="geometry">
            <mxPoint x="480" y="360" as="sourcePoint" />
            <mxPoint x="650" y="490" as="targetPoint" />
          </mxGeometry>
        </mxCell>
      </root>
    </mxGraphModel>
  </diagram>
</mxfile>
